<svg width="30" height="20" viewBox="0 0 30 20" fill="none" xmlns="http://www.w3.org/2000/svg">
<path fill-rule="evenodd" clip-rule="evenodd" d="M12.666 2.56412V6.66676H15.7059V2.56412H14.6926V5.6411H13.6793V2.56412H12.666Z" fill="url(#paint0_linear_88_5)"/>
<path fill-rule="evenodd" clip-rule="evenodd" d="M0 7.17952V17.4359H1.01328V7.17952H0Z" fill="url(#paint1_linear_88_5)"/>
<path fill-rule="evenodd" clip-rule="evenodd" d="M0.253418 11.7949V12.8206H3.54659V11.7949H0.253418Z" fill="url(#paint2_linear_88_5)"/>
<path fill-rule="evenodd" clip-rule="evenodd" d="M10.9266 4.10262C10.5718 4.10262 10.2406 4.29253 10.0578 4.60137L8.83278 6.66676H4.05332C3.49966 6.66676 3.04004 7.13181 3.04004 7.6923V16.9231C3.04004 17.4835 3.49966 17.9488 4.05332 17.9488H8.40933C8.75456 17.9488 9.08965 18.069 9.35929 18.2872L10.7822 19.4391C11.2312 19.8027 11.7883 20 12.3635 20H22.2924C22.8462 20 23.3116 19.5373 23.3057 18.9704V16.4103H25.079L26.4466 18.2572C26.4939 18.3208 26.5552 18.3723 26.6256 18.4078C26.696 18.4432 26.7736 18.4616 26.8522 18.4615H28.3721C29.2056 18.4615 29.8921 17.7666 29.8921 16.923V9.74351C29.8921 8.89991 29.2056 8.20502 28.3721 8.20502H26.8522C26.7734 8.2051 26.6957 8.22375 26.6253 8.25955C26.5549 8.29535 26.4937 8.34728 26.4466 8.41121L25.079 10.2562H23.3057V7.69219C23.3057 7.13169 22.8464 6.66079 22.2866 6.66653H19.5396L18.3146 4.60125C18.1317 4.29152 17.8011 4.10238 17.4457 4.10238H16.2127V5.12804H17.4457L18.8192 7.44376C18.8642 7.51944 18.9277 7.58205 19.0037 7.62558C19.0796 7.66912 19.1653 7.69205 19.2526 7.69219H22.2924V10.7692C22.2925 10.9052 22.3458 11.0356 22.4409 11.1318C22.5359 11.2279 22.6647 11.282 22.7991 11.282H25.3323C25.4109 11.2822 25.4886 11.2637 25.559 11.2283C25.6294 11.1928 25.6907 11.1413 25.738 11.0777L27.1055 9.23079H28.3721C28.658 9.23079 28.8788 9.45448 28.8788 9.74362V16.9231C28.8788 17.2123 28.658 17.4359 28.3721 17.4359H27.1055L25.738 15.5909C25.6909 15.527 25.6297 15.4751 25.5593 15.4393C25.4888 15.4035 25.4111 15.3848 25.3323 15.3847H22.7991C22.6647 15.3848 22.5359 15.4387 22.4409 15.5349C22.3458 15.631 22.2925 15.7615 22.2924 15.8975V18.9744H12.3635C12.0182 18.9744 11.6831 18.8562 11.4135 18.638L9.99056 17.486C9.54147 17.1224 8.98447 16.9231 8.40933 16.9231H4.05332V7.6923H9.11975C9.20735 7.69252 9.29351 7.66984 9.36983 7.62629C9.44614 7.58274 9.50999 7.51986 9.55515 7.44388L10.9266 5.12816H12.1596V4.1025L10.9266 4.10262Z" fill="url(#paint3_linear_88_5)"/>
<path fill-rule="evenodd" clip-rule="evenodd" d="M10.1328 4.57764e-05V3.07691H18.2391V4.57764e-05H17.7324H10.1328ZM11.1461 1.02559H17.2258V2.05125H11.1461V1.02559Z" fill="url(#paint4_linear_88_5)"/>
<path fill-rule="evenodd" clip-rule="evenodd" d="M22.2925 10.7692V15.8974H23.3058V10.7692H22.2925Z" fill="url(#paint5_linear_88_5)"/>
<path fill-rule="evenodd" clip-rule="evenodd" d="M5.57324 7.17952V17.4359H6.58653V7.17952H5.57324Z" fill="url(#paint6_linear_88_5)"/>
<path fill-rule="evenodd" clip-rule="evenodd" d="M24.8257 10.7692V15.8974H25.839V10.7692H24.8257Z" fill="url(#paint7_linear_88_5)"/>
<path fill-rule="evenodd" clip-rule="evenodd" d="M19.7593 7.17952V9.23072H20.7726V7.17952H19.7593Z" fill="url(#paint8_linear_88_5)"/>
<path fill-rule="evenodd" clip-rule="evenodd" d="M15.1992 16.9231V17.9487H22.7989V16.9231H15.1992Z" fill="url(#paint9_linear_88_5)"/>
<path fill-rule="evenodd" clip-rule="evenodd" d="M13.6792 16.9231V17.9487H14.6925V16.9231H13.6792Z" fill="url(#paint10_linear_88_5)"/>
<path fill-rule="evenodd" clip-rule="evenodd" d="M19.7593 9.7436V10.7693H20.7726V9.7436H19.7593Z" fill="url(#paint11_linear_88_5)"/>
<defs>
<linearGradient id="paint0_linear_88_5" x1="12.666" y1="2.56412" x2="15.7059" y2="2.56412" gradientUnits="userSpaceOnUse">
<stop stop-color="#7D141D"/>
<stop offset="1" stop-color="#FF1E27"/>
</linearGradient>
<linearGradient id="paint1_linear_88_5" x1="0" y1="7.17952" x2="1.01328" y2="7.17952" gradientUnits="userSpaceOnUse">
<stop stop-color="#7D141D"/>
<stop offset="1" stop-color="#FF1E27"/>
</linearGradient>
<linearGradient id="paint2_linear_88_5" x1="0.253418" y1="11.7949" x2="3.54659" y2="11.7949" gradientUnits="userSpaceOnUse">
<stop stop-color="#7D141D"/>
<stop offset="1" stop-color="#FF1E27"/>
</linearGradient>
<linearGradient id="paint3_linear_88_5" x1="3.04004" y1="4.10238" x2="29.8921" y2="4.10238" gradientUnits="userSpaceOnUse">
<stop stop-color="#7D141D"/>
<stop offset="1" stop-color="#FF1E27"/>
</linearGradient>
<linearGradient id="paint4_linear_88_5" x1="10.1328" y1="4.57764e-05" x2="18.2391" y2="4.57764e-05" gradientUnits="userSpaceOnUse">
<stop stop-color="#7D141D"/>
<stop offset="1" stop-color="#FF1E27"/>
</linearGradient>
<linearGradient id="paint5_linear_88_5" x1="22.2925" y1="10.7692" x2="23.3058" y2="10.7692" gradientUnits="userSpaceOnUse">
<stop stop-color="#7D141D"/>
<stop offset="1" stop-color="#FF1E27"/>
</linearGradient>
<linearGradient id="paint6_linear_88_5" x1="5.57324" y1="7.17952" x2="6.58653" y2="7.17952" gradientUnits="userSpaceOnUse">
<stop stop-color="#7D141D"/>
<stop offset="1" stop-color="#FF1E27"/>
</linearGradient>
<linearGradient id="paint7_linear_88_5" x1="24.8257" y1="10.7692" x2="25.839" y2="10.7692" gradientUnits="userSpaceOnUse">
<stop stop-color="#7D141D"/>
<stop offset="1" stop-color="#FF1E27"/>
</linearGradient>
<linearGradient id="paint8_linear_88_5" x1="19.7593" y1="7.17952" x2="20.7726" y2="7.17952" gradientUnits="userSpaceOnUse">
<stop stop-color="#7D141D"/>
<stop offset="1" stop-color="#FF1E27"/>
</linearGradient>
<linearGradient id="paint9_linear_88_5" x1="15.1992" y1="16.9231" x2="22.7989" y2="16.9231" gradientUnits="userSpaceOnUse">
<stop stop-color="#7D141D"/>
<stop offset="1" stop-color="#FF1E27"/>
</linearGradient>
<linearGradient id="paint10_linear_88_5" x1="13.6792" y1="16.9231" x2="14.6925" y2="16.9231" gradientUnits="userSpaceOnUse">
<stop stop-color="#7D141D"/>
<stop offset="1" stop-color="#FF1E27"/>
</linearGradient>
<linearGradient id="paint11_linear_88_5" x1="19.7593" y1="9.7436" x2="20.7726" y2="9.7436" gradientUnits="userSpaceOnUse">
<stop stop-color="#7D141D"/>
<stop offset="1" stop-color="#FF1E27"/>
</linearGradient>
</defs>
</svg>
