<svg width="158" height="20" viewBox="0 0 158 20" fill="none" xmlns="http://www.w3.org/2000/svg">
<g clip-path="url(#clip0_88_4)">
<path fill-rule="evenodd" clip-rule="evenodd" d="M12.666 2.56412V6.66676H15.7059V2.56412H14.6926V5.6411H13.6793V2.56412H12.666Z" fill="url(#paint0_linear_88_4)"/>
<path fill-rule="evenodd" clip-rule="evenodd" d="M0 7.17952V17.4359H1.01328V7.17952H0Z" fill="url(#paint1_linear_88_4)"/>
<path fill-rule="evenodd" clip-rule="evenodd" d="M0.253418 11.7949V12.8206H3.54659V11.7949H0.253418Z" fill="url(#paint2_linear_88_4)"/>
<path fill-rule="evenodd" clip-rule="evenodd" d="M10.9266 4.10262C10.5718 4.10262 10.2406 4.29253 10.0578 4.60137L8.83278 6.66676H4.05332C3.49966 6.66676 3.04004 7.13181 3.04004 7.6923V16.9231C3.04004 17.4835 3.49966 17.9488 4.05332 17.9488H8.40933C8.75456 17.9488 9.08965 18.069 9.35929 18.2872L10.7822 19.4391C11.2312 19.8027 11.7883 20 12.3635 20H22.2924C22.8462 20 23.3116 19.5373 23.3057 18.9704V16.4103H25.079L26.4466 18.2572C26.4939 18.3208 26.5552 18.3723 26.6256 18.4078C26.696 18.4432 26.7736 18.4616 26.8522 18.4615H28.3721C29.2056 18.4615 29.8921 17.7666 29.8921 16.923V9.74351C29.8921 8.89991 29.2056 8.20502 28.3721 8.20502H26.8522C26.7734 8.2051 26.6957 8.22375 26.6253 8.25955C26.5549 8.29535 26.4937 8.34728 26.4466 8.41121L25.079 10.2562H23.3057V7.69219C23.3057 7.13169 22.8464 6.66079 22.2866 6.66653H19.5396L18.3146 4.60125C18.1317 4.29152 17.8011 4.10238 17.4457 4.10238H16.2127V5.12804H17.4457L18.8192 7.44376C18.8642 7.51944 18.9277 7.58205 19.0037 7.62558C19.0796 7.66912 19.1653 7.69205 19.2526 7.69219H22.2924V10.7692C22.2925 10.9052 22.3458 11.0356 22.4409 11.1318C22.5359 11.2279 22.6647 11.282 22.7991 11.282H25.3323C25.4109 11.2822 25.4886 11.2637 25.559 11.2283C25.6294 11.1928 25.6907 11.1413 25.738 11.0777L27.1055 9.23079H28.3721C28.658 9.23079 28.8788 9.45448 28.8788 9.74362V16.9231C28.8788 17.2123 28.658 17.4359 28.3721 17.4359H27.1055L25.738 15.5909C25.6909 15.527 25.6297 15.4751 25.5593 15.4393C25.4888 15.4035 25.4111 15.3848 25.3323 15.3847H22.7991C22.6647 15.3848 22.5359 15.4387 22.4409 15.5349C22.3458 15.631 22.2925 15.7615 22.2924 15.8975V18.9744H12.3635C12.0182 18.9744 11.6831 18.8562 11.4135 18.638L9.99056 17.486C9.54147 17.1224 8.98447 16.9231 8.40933 16.9231H4.05332V7.6923H9.11975C9.20735 7.69252 9.29351 7.66984 9.36983 7.62629C9.44614 7.58274 9.50999 7.51986 9.55515 7.44388L10.9266 5.12816H12.1596V4.1025L10.9266 4.10262Z" fill="url(#paint3_linear_88_4)"/>
<path fill-rule="evenodd" clip-rule="evenodd" d="M10.1328 4.57764e-05V3.07691H18.2391V4.57764e-05H17.7324H10.1328ZM11.1461 1.02559H17.2258V2.05125H11.1461V1.02559Z" fill="url(#paint4_linear_88_4)"/>
<path fill-rule="evenodd" clip-rule="evenodd" d="M22.2925 10.7692V15.8974H23.3058V10.7692H22.2925Z" fill="url(#paint5_linear_88_4)"/>
<path fill-rule="evenodd" clip-rule="evenodd" d="M5.57324 7.17952V17.4359H6.58653V7.17952H5.57324Z" fill="url(#paint6_linear_88_4)"/>
<path fill-rule="evenodd" clip-rule="evenodd" d="M24.8257 10.7692V15.8974H25.839V10.7692H24.8257Z" fill="url(#paint7_linear_88_4)"/>
<path fill-rule="evenodd" clip-rule="evenodd" d="M19.7593 7.17952V9.23072H20.7726V7.17952H19.7593Z" fill="url(#paint8_linear_88_4)"/>
<path fill-rule="evenodd" clip-rule="evenodd" d="M15.1992 16.9231V17.9487H22.7989V16.9231H15.1992Z" fill="url(#paint9_linear_88_4)"/>
<path fill-rule="evenodd" clip-rule="evenodd" d="M13.6792 16.9231V17.9487H14.6925V16.9231H13.6792Z" fill="url(#paint10_linear_88_4)"/>
<path fill-rule="evenodd" clip-rule="evenodd" d="M19.7593 9.7436V10.7693H20.7726V9.7436H19.7593Z" fill="url(#paint11_linear_88_4)"/>
<path d="M54.9552 17.5629H52.0762L51.1615 6.94924L47.6375 17.5629H45.7696L42.2455 6.94924L41.3212 17.5629H38.4326L39.5976 3.48023H43.7187L46.6843 12.3198L49.6884 3.48023H53.8094L54.9552 17.5629ZM66.9231 12.4073L66.8942 13.0797H59.5572C59.6728 14.7463 60.7705 15.5455 62.0896 15.5455C63.0814 15.5455 63.8516 15.0777 64.2272 14.1908L66.7691 14.5709C66.1143 16.5981 64.3331 17.7579 62.1088 17.7579C58.9121 17.7579 56.8228 15.8476 56.8228 12.5536C56.8228 9.25948 58.9699 7.32967 62.0221 7.32967C64.8241 7.32967 66.9134 8.89872 66.9231 12.4073ZM62.0419 9.31778C60.7805 9.31778 59.9043 9.91228 59.6347 11.2475H64.1794C64.035 9.97076 63.1781 9.31778 62.0419 9.31778ZM73.5095 17.7481C70.3994 17.7481 68.2041 15.6527 68.2041 12.5437C68.2041 9.42501 70.3994 7.34909 73.5095 7.34909C76.0129 7.34909 77.8905 8.66484 78.3718 11.0331L75.8106 11.3157C75.5025 10.1169 74.6456 9.56144 73.4805 9.56144C71.988 9.56144 70.977 10.7504 70.977 12.5437C70.977 14.3272 71.988 15.526 73.4805 15.526C74.6455 15.526 75.5025 14.9608 75.8106 13.7718L78.3718 14.0544C77.8904 16.4226 75.9647 17.7481 73.5095 17.7481ZM88.4626 14.8438C88.4626 16.0718 88.5782 16.8514 88.7033 17.29V17.5629H86.1132L85.8917 16.4713C85.1503 17.3777 83.8697 17.7578 82.7143 17.7578C81.1545 17.7578 79.6331 17.0561 79.6331 14.9704C79.6331 12.8945 81.164 12.1928 83.2342 11.7348L84.8614 11.3644C85.5643 11.1987 85.8146 10.9551 85.8146 10.5457C85.8146 9.5614 84.9288 9.28848 84.1488 9.28848C83.1475 9.28848 82.3868 9.68806 82.2135 10.8186L79.7583 10.3703C80.1723 8.29436 81.6744 7.34906 84.303 7.34906C86.2864 7.34906 88.4626 7.94356 88.4626 10.9648L88.4626 14.8438ZM83.5809 15.8573C84.9 15.8573 85.9592 14.9704 85.9592 12.9822L83.6098 13.6547C82.8395 13.8399 82.281 14.1127 82.281 14.7852C82.281 15.5064 82.8684 15.8573 83.5809 15.8573ZM97.0031 7.34944C99.3814 7.34944 100.691 8.59693 100.691 10.8191V17.5633H97.9082V11.4233C97.9082 10.0881 97.0897 9.60081 96.1365 9.60081C94.9907 9.60081 93.9508 10.1856 93.9316 12.0373V17.5633H91.1585V7.54445H93.9316V8.65551C94.6248 7.8271 95.6937 7.34944 97.0031 7.34944ZM107.989 17.7578C104.841 17.7578 102.569 15.8183 102.569 12.5437C102.569 9.28855 104.822 7.34905 107.989 7.34905C111.176 7.34905 113.42 9.28855 113.42 12.5437C113.42 15.8184 111.167 17.7578 107.989 17.7578ZM107.96 15.526C109.568 15.526 110.666 14.337 110.666 12.5437C110.666 10.7504 109.568 9.56139 107.96 9.56139C106.41 9.56139 105.322 10.7504 105.322 12.5437C105.322 14.337 106.41 15.526 107.96 15.526ZM123.915 3.48023V6.05315H120.613V17.563H117.753V6.05315H114.431V3.48023H123.915ZM135.045 12.4073L135.016 13.0797H127.679C127.795 14.7463 128.893 15.5455 130.212 15.5455C131.203 15.5455 131.974 15.0777 132.349 14.1908L134.891 14.5709C134.236 16.5981 132.455 17.7579 130.231 17.7579C127.034 17.7579 124.945 15.8476 124.945 12.5536C124.945 9.25948 127.092 7.32967 130.144 7.32967C132.946 7.32967 135.036 8.89872 135.045 12.4073ZM130.164 9.31778C128.903 9.31778 128.026 9.91228 127.757 11.2475H132.302C132.157 9.97076 131.3 9.31778 130.164 9.31778ZM141.632 17.7481C138.522 17.7481 136.326 15.6527 136.326 12.5437C136.326 9.42501 138.522 7.34909 141.632 7.34909C144.135 7.34909 146.013 8.66484 146.494 11.0331L143.933 11.3157C143.625 10.1169 142.768 9.56144 141.603 9.56144C140.11 9.56144 139.099 10.7504 139.099 12.5437C139.099 14.3272 140.11 15.526 141.603 15.526C142.768 15.526 143.625 14.9608 143.933 13.7718L146.494 14.0544C146.013 16.4226 144.087 17.7481 141.632 17.7481ZM154.457 7.34944C156.671 7.34944 158 8.59693 158 11.1017V17.5633H155.217V11.5598C155.217 10.0881 154.409 9.60081 153.417 9.60081C152.387 9.60081 151.26 10.1173 151.241 12.0373V17.5633H148.468V2.59341H151.241V8.74313C151.944 7.87574 153.051 7.34944 154.457 7.34944Z" fill="white"/>
</g>
<defs>
<linearGradient id="paint0_linear_88_4" x1="12.666" y1="2.56412" x2="15.7059" y2="2.56412" gradientUnits="userSpaceOnUse">
<stop stop-color="#7D141D"/>
<stop offset="1" stop-color="#FF1E27"/>
</linearGradient>
<linearGradient id="paint1_linear_88_4" x1="0" y1="7.17952" x2="1.01328" y2="7.17952" gradientUnits="userSpaceOnUse">
<stop stop-color="#7D141D"/>
<stop offset="1" stop-color="#FF1E27"/>
</linearGradient>
<linearGradient id="paint2_linear_88_4" x1="0.253418" y1="11.7949" x2="3.54659" y2="11.7949" gradientUnits="userSpaceOnUse">
<stop stop-color="#7D141D"/>
<stop offset="1" stop-color="#FF1E27"/>
</linearGradient>
<linearGradient id="paint3_linear_88_4" x1="3.04004" y1="4.10238" x2="29.8921" y2="4.10238" gradientUnits="userSpaceOnUse">
<stop stop-color="#7D141D"/>
<stop offset="1" stop-color="#FF1E27"/>
</linearGradient>
<linearGradient id="paint4_linear_88_4" x1="10.1328" y1="4.57764e-05" x2="18.2391" y2="4.57764e-05" gradientUnits="userSpaceOnUse">
<stop stop-color="#7D141D"/>
<stop offset="1" stop-color="#FF1E27"/>
</linearGradient>
<linearGradient id="paint5_linear_88_4" x1="22.2925" y1="10.7692" x2="23.3058" y2="10.7692" gradientUnits="userSpaceOnUse">
<stop stop-color="#7D141D"/>
<stop offset="1" stop-color="#FF1E27"/>
</linearGradient>
<linearGradient id="paint6_linear_88_4" x1="5.57324" y1="7.17952" x2="6.58653" y2="7.17952" gradientUnits="userSpaceOnUse">
<stop stop-color="#7D141D"/>
<stop offset="1" stop-color="#FF1E27"/>
</linearGradient>
<linearGradient id="paint7_linear_88_4" x1="24.8257" y1="10.7692" x2="25.839" y2="10.7692" gradientUnits="userSpaceOnUse">
<stop stop-color="#7D141D"/>
<stop offset="1" stop-color="#FF1E27"/>
</linearGradient>
<linearGradient id="paint8_linear_88_4" x1="19.7593" y1="7.17952" x2="20.7726" y2="7.17952" gradientUnits="userSpaceOnUse">
<stop stop-color="#7D141D"/>
<stop offset="1" stop-color="#FF1E27"/>
</linearGradient>
<linearGradient id="paint9_linear_88_4" x1="15.1992" y1="16.9231" x2="22.7989" y2="16.9231" gradientUnits="userSpaceOnUse">
<stop stop-color="#7D141D"/>
<stop offset="1" stop-color="#FF1E27"/>
</linearGradient>
<linearGradient id="paint10_linear_88_4" x1="13.6792" y1="16.9231" x2="14.6925" y2="16.9231" gradientUnits="userSpaceOnUse">
<stop stop-color="#7D141D"/>
<stop offset="1" stop-color="#FF1E27"/>
</linearGradient>
<linearGradient id="paint11_linear_88_4" x1="19.7593" y1="9.7436" x2="20.7726" y2="9.7436" gradientUnits="userSpaceOnUse">
<stop stop-color="#7D141D"/>
<stop offset="1" stop-color="#FF1E27"/>
</linearGradient>
<clipPath id="clip0_88_4">
<rect width="158" height="20" fill="white"/>
</clipPath>
</defs>
</svg>
