<svg width="606" height="102" viewBox="0 0 606 102" fill="none" xmlns="http://www.w3.org/2000/svg">
<path d="M234.512 101L227.072 84.2H228.992L235.952 100.016H234.896L241.904 84.2H243.704L236.264 101H234.512ZM249.957 101.12C248.741 101.12 247.645 100.848 246.669 100.304C245.709 99.744 244.949 98.984 244.389 98.024C243.829 97.048 243.549 95.936 243.549 94.688C243.549 93.424 243.829 92.312 244.389 91.352C244.949 90.392 245.709 89.64 246.669 89.096C247.629 88.552 248.725 88.28 249.957 88.28C251.205 88.28 252.309 88.552 253.269 89.096C254.245 89.64 255.005 90.392 255.549 91.352C256.109 92.312 256.389 93.424 256.389 94.688C256.389 95.936 256.109 97.048 255.549 98.024C255.005 98.984 254.245 99.744 253.269 100.304C252.293 100.848 251.189 101.12 249.957 101.12ZM249.957 99.608C250.869 99.608 251.677 99.408 252.381 99.008C253.085 98.592 253.637 98.016 254.037 97.28C254.453 96.528 254.661 95.664 254.661 94.688C254.661 93.696 254.453 92.832 254.037 92.096C253.637 91.36 253.085 90.792 252.381 90.392C251.677 89.976 250.877 89.768 249.981 89.768C249.085 89.768 248.285 89.976 247.581 90.392C246.877 90.792 246.317 91.36 245.901 92.096C245.485 92.832 245.277 93.696 245.277 94.688C245.277 95.664 245.485 96.528 245.901 97.28C246.317 98.016 246.877 98.592 247.581 99.008C248.285 99.408 249.077 99.608 249.957 99.608ZM265.1 101.12C263.852 101.12 262.732 100.848 261.74 100.304C260.764 99.744 259.996 98.984 259.436 98.024C258.876 97.048 258.596 95.936 258.596 94.688C258.596 93.424 258.876 92.312 259.436 91.352C259.996 90.392 260.764 89.64 261.74 89.096C262.732 88.552 263.852 88.28 265.1 88.28C266.172 88.28 267.14 88.488 268.004 88.904C268.868 89.32 269.548 89.944 270.044 90.776L268.772 91.64C268.34 91 267.804 90.528 267.164 90.224C266.524 89.92 265.828 89.768 265.076 89.768C264.18 89.768 263.372 89.976 262.652 90.392C261.932 90.792 261.364 91.36 260.948 92.096C260.532 92.832 260.324 93.696 260.324 94.688C260.324 95.68 260.532 96.544 260.948 97.28C261.364 98.016 261.932 98.592 262.652 99.008C263.372 99.408 264.18 99.608 265.076 99.608C265.828 99.608 266.524 99.456 267.164 99.152C267.804 98.848 268.34 98.384 268.772 97.76L270.044 98.624C269.548 99.44 268.868 100.064 268.004 100.496C267.14 100.912 266.172 101.12 265.1 101.12ZM278.533 101.12C277.221 101.12 276.069 100.848 275.077 100.304C274.085 99.744 273.309 98.984 272.749 98.024C272.189 97.048 271.909 95.936 271.909 94.688C271.909 93.44 272.173 92.336 272.701 91.376C273.245 90.416 273.981 89.664 274.909 89.12C275.853 88.56 276.909 88.28 278.077 88.28C279.261 88.28 280.309 88.552 281.221 89.096C282.149 89.624 282.877 90.376 283.405 91.352C283.933 92.312 284.197 93.424 284.197 94.688C284.197 94.768 284.189 94.856 284.173 94.952C284.173 95.032 284.173 95.12 284.173 95.216H273.205V93.944H283.261L282.589 94.448C282.589 93.536 282.389 92.728 281.989 92.024C281.605 91.304 281.077 90.744 280.405 90.344C279.733 89.944 278.957 89.744 278.077 89.744C277.213 89.744 276.437 89.944 275.749 90.344C275.061 90.744 274.525 91.304 274.141 92.024C273.757 92.744 273.565 93.568 273.565 94.496V94.76C273.565 95.72 273.773 96.568 274.189 97.304C274.621 98.024 275.213 98.592 275.965 99.008C276.733 99.408 277.605 99.608 278.581 99.608C279.349 99.608 280.061 99.472 280.717 99.2C281.389 98.928 281.965 98.512 282.445 97.952L283.405 99.056C282.845 99.728 282.141 100.24 281.293 100.592C280.461 100.944 279.541 101.12 278.533 101.12ZM274.093 86.432L277.189 83.456H278.917L282.013 86.432H280.429L277.381 83.888H278.725L275.677 86.432H274.093ZM300.378 88.28C301.402 88.28 302.298 88.48 303.066 88.88C303.85 89.264 304.458 89.856 304.89 90.656C305.338 91.456 305.562 92.464 305.562 93.68V101H303.858V93.848C303.858 92.52 303.522 91.52 302.85 90.848C302.194 90.16 301.266 89.816 300.066 89.816C299.17 89.816 298.386 90 297.714 90.368C297.058 90.72 296.546 91.24 296.178 91.928C295.826 92.6 295.65 93.416 295.65 94.376V101H293.946V88.4H295.578V91.856L295.314 91.208C295.714 90.296 296.354 89.584 297.234 89.072C298.114 88.544 299.162 88.28 300.378 88.28ZM315.301 101.12C314.085 101.12 312.989 100.848 312.013 100.304C311.053 99.744 310.293 98.984 309.733 98.024C309.173 97.048 308.893 95.936 308.893 94.688C308.893 93.424 309.173 92.312 309.733 91.352C310.293 90.392 311.053 89.64 312.013 89.096C312.973 88.552 314.069 88.28 315.301 88.28C316.549 88.28 317.653 88.552 318.613 89.096C319.589 89.64 320.349 90.392 320.893 91.352C321.453 92.312 321.733 93.424 321.733 94.688C321.733 95.936 321.453 97.048 320.893 98.024C320.349 98.984 319.589 99.744 318.613 100.304C317.637 100.848 316.533 101.12 315.301 101.12ZM315.301 99.608C316.213 99.608 317.021 99.408 317.725 99.008C318.429 98.592 318.981 98.016 319.381 97.28C319.797 96.528 320.005 95.664 320.005 94.688C320.005 93.696 319.797 92.832 319.381 92.096C318.981 91.36 318.429 90.792 317.725 90.392C317.021 89.976 316.221 89.768 315.325 89.768C314.429 89.768 313.629 89.976 312.925 90.392C312.221 90.792 311.661 91.36 311.245 92.096C310.829 92.832 310.621 93.696 310.621 94.688C310.621 95.664 310.829 96.528 311.245 97.28C311.661 98.016 312.221 98.592 312.925 99.008C313.629 99.408 314.421 99.608 315.301 99.608ZM336.725 101.12C335.477 101.12 334.357 100.848 333.365 100.304C332.389 99.744 331.621 98.984 331.061 98.024C330.501 97.048 330.221 95.936 330.221 94.688C330.221 93.424 330.501 92.312 331.061 91.352C331.621 90.392 332.389 89.64 333.365 89.096C334.357 88.552 335.477 88.28 336.725 88.28C337.797 88.28 338.765 88.488 339.629 88.904C340.493 89.32 341.173 89.944 341.669 90.776L340.397 91.64C339.965 91 339.429 90.528 338.789 90.224C338.149 89.92 337.453 89.768 336.701 89.768C335.805 89.768 334.997 89.976 334.277 90.392C333.557 90.792 332.989 91.36 332.573 92.096C332.157 92.832 331.949 93.696 331.949 94.688C331.949 95.68 332.157 96.544 332.573 97.28C332.989 98.016 333.557 98.592 334.277 99.008C334.997 99.408 335.805 99.608 336.701 99.608C337.453 99.608 338.149 99.456 338.789 99.152C339.429 98.848 339.965 98.384 340.397 97.76L341.669 98.624C341.173 99.44 340.493 100.064 339.629 100.496C338.765 100.912 337.797 101.12 336.725 101.12ZM349.942 101.12C348.726 101.12 347.63 100.848 346.654 100.304C345.694 99.744 344.934 98.984 344.374 98.024C343.814 97.048 343.534 95.936 343.534 94.688C343.534 93.424 343.814 92.312 344.374 91.352C344.934 90.392 345.694 89.64 346.654 89.096C347.614 88.552 348.71 88.28 349.942 88.28C351.19 88.28 352.294 88.552 353.254 89.096C354.23 89.64 354.99 90.392 355.534 91.352C356.094 92.312 356.374 93.424 356.374 94.688C356.374 95.936 356.094 97.048 355.534 98.024C354.99 98.984 354.23 99.744 353.254 100.304C352.278 100.848 351.174 101.12 349.942 101.12ZM349.942 99.608C350.854 99.608 351.662 99.408 352.366 99.008C353.07 98.592 353.622 98.016 354.022 97.28C354.438 96.528 354.646 95.664 354.646 94.688C354.646 93.696 354.438 92.832 354.022 92.096C353.622 91.36 353.07 90.792 352.366 90.392C351.662 89.976 350.862 89.768 349.966 89.768C349.07 89.768 348.27 89.976 347.566 90.392C346.862 90.792 346.302 91.36 345.886 92.096C345.47 92.832 345.262 93.696 345.262 94.688C345.262 95.664 345.47 96.528 345.886 97.28C346.302 98.016 346.862 98.592 347.566 99.008C348.27 99.408 349.062 99.608 349.942 99.608ZM366.285 88.28C367.309 88.28 368.205 88.48 368.973 88.88C369.757 89.264 370.365 89.856 370.797 90.656C371.245 91.456 371.469 92.464 371.469 93.68V101H369.765V93.848C369.765 92.52 369.429 91.52 368.757 90.848C368.101 90.16 367.173 89.816 365.973 89.816C365.077 89.816 364.293 90 363.621 90.368C362.965 90.72 362.453 91.24 362.085 91.928C361.733 92.6 361.557 93.416 361.557 94.376V101H359.853V88.4H361.485V91.856L361.221 91.208C361.621 90.296 362.261 89.584 363.141 89.072C364.021 88.544 365.069 88.28 366.285 88.28ZM380.055 101.12C378.871 101.12 377.959 100.8 377.319 100.16C376.679 99.52 376.359 98.616 376.359 97.448V85.616H378.063V97.352C378.063 98.088 378.247 98.656 378.615 99.056C378.999 99.456 379.543 99.656 380.247 99.656C380.999 99.656 381.623 99.44 382.119 99.008L382.719 100.232C382.383 100.536 381.975 100.76 381.495 100.904C381.031 101.048 380.551 101.12 380.055 101.12ZM374.103 89.816V88.4H381.903V89.816H374.103ZM385.821 101V88.4H387.453V91.832L387.285 91.232C387.637 90.272 388.229 89.544 389.061 89.048C389.893 88.536 390.925 88.28 392.157 88.28V89.936C392.093 89.936 392.029 89.936 391.965 89.936C391.901 89.92 391.837 89.912 391.773 89.912C390.445 89.912 389.405 90.32 388.653 91.136C387.901 91.936 387.525 93.08 387.525 94.568V101H385.821ZM400.285 101.12C399.069 101.12 397.973 100.848 396.997 100.304C396.037 99.744 395.277 98.984 394.717 98.024C394.157 97.048 393.877 95.936 393.877 94.688C393.877 93.424 394.157 92.312 394.717 91.352C395.277 90.392 396.037 89.64 396.997 89.096C397.957 88.552 399.053 88.28 400.285 88.28C401.533 88.28 402.637 88.552 403.597 89.096C404.573 89.64 405.333 90.392 405.877 91.352C406.437 92.312 406.717 93.424 406.717 94.688C406.717 95.936 406.437 97.048 405.877 98.024C405.333 98.984 404.573 99.744 403.597 100.304C402.621 100.848 401.517 101.12 400.285 101.12ZM400.285 99.608C401.197 99.608 402.005 99.408 402.709 99.008C403.413 98.592 403.965 98.016 404.365 97.28C404.781 96.528 404.989 95.664 404.989 94.688C404.989 93.696 404.781 92.832 404.365 92.096C403.965 91.36 403.413 90.792 402.709 90.392C402.005 89.976 401.205 89.768 400.309 89.768C399.413 89.768 398.613 89.976 397.909 90.392C397.205 90.792 396.645 91.36 396.229 92.096C395.813 92.832 395.605 93.696 395.605 94.688C395.605 95.664 395.813 96.528 396.229 97.28C396.645 98.016 397.205 98.592 397.909 99.008C398.613 99.408 399.405 99.608 400.285 99.608ZM410.196 101V83.192H411.9V101H410.196ZM421.994 101.12C420.682 101.12 419.53 100.848 418.538 100.304C417.546 99.744 416.77 98.984 416.21 98.024C415.65 97.048 415.37 95.936 415.37 94.688C415.37 93.44 415.634 92.336 416.162 91.376C416.706 90.416 417.442 89.664 418.37 89.12C419.314 88.56 420.37 88.28 421.538 88.28C422.722 88.28 423.77 88.552 424.682 89.096C425.61 89.624 426.338 90.376 426.866 91.352C427.394 92.312 427.658 93.424 427.658 94.688C427.658 94.768 427.65 94.856 427.634 94.952C427.634 95.032 427.634 95.12 427.634 95.216H416.666V93.944H426.722L426.05 94.448C426.05 93.536 425.85 92.728 425.45 92.024C425.066 91.304 424.538 90.744 423.866 90.344C423.194 89.944 422.418 89.744 421.538 89.744C420.674 89.744 419.898 89.944 419.21 90.344C418.522 90.744 417.986 91.304 417.602 92.024C417.218 92.744 417.026 93.568 417.026 94.496V94.76C417.026 95.72 417.234 96.568 417.65 97.304C418.082 98.024 418.674 98.592 419.426 99.008C420.194 99.408 421.066 99.608 422.042 99.608C422.81 99.608 423.522 99.472 424.178 99.2C424.85 98.928 425.426 98.512 425.906 97.952L426.866 99.056C426.306 99.728 425.602 100.24 424.754 100.592C423.922 100.944 423.002 101.12 421.994 101.12ZM442.423 101.12C441.223 101.12 440.143 100.848 439.183 100.304C438.239 99.76 437.495 99.008 436.951 98.048C436.407 97.072 436.135 95.952 436.135 94.688C436.135 93.408 436.407 92.288 436.951 91.328C437.495 90.368 438.239 89.624 439.183 89.096C440.143 88.552 441.223 88.28 442.423 88.28C443.527 88.28 444.511 88.528 445.375 89.024C446.255 89.52 446.951 90.248 447.463 91.208C447.991 92.152 448.255 93.312 448.255 94.688C448.255 96.048 447.999 97.208 447.487 98.168C446.975 99.128 446.279 99.864 445.399 100.376C444.535 100.872 443.543 101.12 442.423 101.12ZM442.543 99.608C443.439 99.608 444.239 99.408 444.943 99.008C445.663 98.592 446.223 98.016 446.623 97.28C447.039 96.528 447.247 95.664 447.247 94.688C447.247 93.696 447.039 92.832 446.623 92.096C446.223 91.36 445.663 90.792 444.943 90.392C444.239 89.976 443.439 89.768 442.543 89.768C441.663 89.768 440.871 89.976 440.167 90.392C439.463 90.792 438.903 91.36 438.487 92.096C438.071 92.832 437.863 93.696 437.863 94.688C437.863 95.664 438.071 96.528 438.487 97.28C438.903 98.016 439.463 98.592 440.167 99.008C440.871 99.408 441.663 99.608 442.543 99.608ZM447.295 101V97.208L447.463 94.664L447.223 92.12V83.192H448.927V101H447.295ZM461.569 101V98.216L461.497 97.76V93.104C461.497 92.032 461.193 91.208 460.585 90.632C459.993 90.056 459.105 89.768 457.921 89.768C457.105 89.768 456.329 89.904 455.593 90.176C454.857 90.448 454.233 90.808 453.721 91.256L452.953 89.984C453.593 89.44 454.361 89.024 455.257 88.736C456.153 88.432 457.097 88.28 458.089 88.28C459.721 88.28 460.977 88.688 461.857 89.504C462.753 90.304 463.201 91.528 463.201 93.176V101H461.569ZM457.225 101.12C456.281 101.12 455.457 100.968 454.753 100.664C454.065 100.344 453.537 99.912 453.169 99.368C452.801 98.808 452.617 98.168 452.617 97.448C452.617 96.792 452.769 96.2 453.073 95.672C453.393 95.128 453.905 94.696 454.609 94.376C455.329 94.04 456.289 93.872 457.489 93.872H461.833V95.144H457.537C456.321 95.144 455.473 95.36 454.993 95.792C454.529 96.224 454.297 96.76 454.297 97.4C454.297 98.12 454.577 98.696 455.137 99.128C455.697 99.56 456.481 99.776 457.489 99.776C458.449 99.776 459.273 99.56 459.961 99.128C460.665 98.68 461.177 98.04 461.497 97.208L461.881 98.384C461.561 99.216 461.001 99.88 460.201 100.376C459.417 100.872 458.425 101.12 457.225 101.12ZM477.494 101.12C476.454 101.12 475.47 100.976 474.542 100.688C473.614 100.384 472.886 100.008 472.358 99.56L473.126 98.216C473.638 98.6 474.294 98.936 475.094 99.224C475.894 99.496 476.734 99.632 477.614 99.632C478.814 99.632 479.678 99.448 480.206 99.08C480.734 98.696 480.998 98.192 480.998 97.568C480.998 97.104 480.846 96.744 480.542 96.488C480.254 96.216 479.87 96.016 479.39 95.888C478.91 95.744 478.374 95.624 477.782 95.528C477.19 95.432 476.598 95.32 476.006 95.192C475.43 95.064 474.902 94.88 474.422 94.64C473.942 94.384 473.55 94.04 473.246 93.608C472.958 93.176 472.814 92.6 472.814 91.88C472.814 91.192 473.006 90.576 473.39 90.032C473.774 89.488 474.334 89.064 475.07 88.76C475.822 88.44 476.734 88.28 477.806 88.28C478.622 88.28 479.438 88.392 480.254 88.616C481.07 88.824 481.742 89.104 482.27 89.456L481.526 90.824C480.966 90.44 480.366 90.168 479.726 90.008C479.086 89.832 478.446 89.744 477.806 89.744C476.67 89.744 475.83 89.944 475.286 90.344C474.758 90.728 474.494 91.224 474.494 91.832C474.494 92.312 474.638 92.688 474.926 92.96C475.23 93.232 475.622 93.448 476.102 93.608C476.598 93.752 477.134 93.872 477.71 93.968C478.302 94.064 478.886 94.184 479.462 94.328C480.054 94.456 480.59 94.64 481.07 94.88C481.566 95.104 481.958 95.432 482.246 95.864C482.55 96.28 482.702 96.832 482.702 97.52C482.702 98.256 482.494 98.896 482.078 99.44C481.678 99.968 481.086 100.384 480.302 100.688C479.534 100.976 478.598 101.12 477.494 101.12ZM491.037 101.12C489.965 101.12 489.029 100.92 488.229 100.52C487.429 100.12 486.805 99.52 486.357 98.72C485.925 97.92 485.709 96.92 485.709 95.72V88.4H487.413V95.528C487.413 96.872 487.741 97.888 488.397 98.576C489.069 99.248 490.005 99.584 491.205 99.584C492.085 99.584 492.845 99.408 493.485 99.056C494.141 98.688 494.637 98.16 494.973 97.472C495.325 96.784 495.501 95.96 495.501 95V88.4H497.205V101H495.573V97.544L495.837 98.168C495.437 99.096 494.813 99.824 493.965 100.352C493.133 100.864 492.157 101.12 491.037 101.12ZM509.85 101V98.216L509.778 97.76V93.104C509.778 92.032 509.474 91.208 508.866 90.632C508.274 90.056 507.386 89.768 506.202 89.768C505.386 89.768 504.61 89.904 503.874 90.176C503.138 90.448 502.514 90.808 502.002 91.256L501.234 89.984C501.874 89.44 502.642 89.024 503.538 88.736C504.434 88.432 505.378 88.28 506.37 88.28C508.002 88.28 509.258 88.688 510.138 89.504C511.034 90.304 511.482 91.528 511.482 93.176V101H509.85ZM505.506 101.12C504.562 101.12 503.738 100.968 503.034 100.664C502.346 100.344 501.818 99.912 501.45 99.368C501.082 98.808 500.898 98.168 500.898 97.448C500.898 96.792 501.05 96.2 501.354 95.672C501.674 95.128 502.186 94.696 502.89 94.376C503.61 94.04 504.57 93.872 505.77 93.872H510.114V95.144H505.818C504.602 95.144 503.754 95.36 503.274 95.792C502.81 96.224 502.578 96.76 502.578 97.4C502.578 98.12 502.858 98.696 503.418 99.128C503.978 99.56 504.762 99.776 505.77 99.776C506.73 99.776 507.554 99.56 508.242 99.128C508.946 98.68 509.458 98.04 509.778 97.208L510.162 98.384C509.842 99.216 509.282 99.88 508.482 100.376C507.698 100.872 506.706 101.12 505.506 101.12ZM527.528 101.12C526.312 101.12 525.216 100.848 524.24 100.304C523.28 99.744 522.52 98.984 521.96 98.024C521.4 97.048 521.12 95.936 521.12 94.688C521.12 93.424 521.4 92.312 521.96 91.352C522.52 90.392 523.28 89.64 524.24 89.096C525.2 88.552 526.296 88.28 527.528 88.28C528.776 88.28 529.88 88.552 530.84 89.096C531.816 89.64 532.576 90.392 533.12 91.352C533.68 92.312 533.96 93.424 533.96 94.688C533.96 95.936 533.68 97.048 533.12 98.024C532.576 98.984 531.816 99.744 530.84 100.304C529.864 100.848 528.76 101.12 527.528 101.12ZM527.528 99.608C528.44 99.608 529.248 99.408 529.952 99.008C530.656 98.592 531.208 98.016 531.608 97.28C532.024 96.528 532.232 95.664 532.232 94.688C532.232 93.696 532.024 92.832 531.608 92.096C531.208 91.36 530.656 90.792 529.952 90.392C529.248 89.976 528.448 89.768 527.552 89.768C526.656 89.768 525.856 89.976 525.152 90.392C524.448 90.792 523.888 91.36 523.472 92.096C523.056 92.832 522.848 93.696 522.848 94.688C522.848 95.664 523.056 96.528 523.472 97.28C523.888 98.016 524.448 98.592 525.152 99.008C525.856 99.408 526.648 99.608 527.528 99.608ZM537.727 101V86.816C537.727 85.696 538.055 84.792 538.711 84.104C539.367 83.416 540.311 83.072 541.543 83.072C542.023 83.072 542.487 83.136 542.935 83.264C543.383 83.392 543.759 83.592 544.063 83.864L543.487 85.136C543.247 84.928 542.967 84.776 542.647 84.68C542.327 84.568 541.983 84.512 541.615 84.512C540.895 84.512 540.343 84.712 539.959 85.112C539.575 85.512 539.383 86.104 539.383 86.888V88.808L539.431 89.6V101H537.727ZM535.471 89.816V88.4H543.271V89.816H535.471ZM545.575 101V88.4H547.279V101H545.575ZM546.439 85.616C546.087 85.616 545.791 85.496 545.551 85.256C545.311 85.016 545.191 84.728 545.191 84.392C545.191 84.056 545.311 83.776 545.551 83.552C545.791 83.312 546.087 83.192 546.439 83.192C546.791 83.192 547.087 83.304 547.327 83.528C547.567 83.752 547.687 84.032 547.687 84.368C547.687 84.72 547.567 85.016 547.327 85.256C547.103 85.496 546.807 85.616 546.439 85.616ZM557.296 101.12C556.048 101.12 554.928 100.848 553.936 100.304C552.96 99.744 552.192 98.984 551.632 98.024C551.072 97.048 550.792 95.936 550.792 94.688C550.792 93.424 551.072 92.312 551.632 91.352C552.192 90.392 552.96 89.64 553.936 89.096C554.928 88.552 556.048 88.28 557.296 88.28C558.368 88.28 559.336 88.488 560.2 88.904C561.064 89.32 561.744 89.944 562.24 90.776L560.968 91.64C560.536 91 560 90.528 559.36 90.224C558.72 89.92 558.024 89.768 557.272 89.768C556.376 89.768 555.568 89.976 554.848 90.392C554.128 90.792 553.56 91.36 553.144 92.096C552.728 92.832 552.52 93.696 552.52 94.688C552.52 95.68 552.728 96.544 553.144 97.28C553.56 98.016 554.128 98.592 554.848 99.008C555.568 99.408 556.376 99.608 557.272 99.608C558.024 99.608 558.72 99.456 559.36 99.152C560 98.848 560.536 98.384 560.968 97.76L562.24 98.624C561.744 99.44 561.064 100.064 560.2 100.496C559.336 100.912 558.368 101.12 557.296 101.12ZM565.399 101V88.4H567.103V101H565.399ZM566.263 85.616C565.911 85.616 565.615 85.496 565.375 85.256C565.135 85.016 565.015 84.728 565.015 84.392C565.015 84.056 565.135 83.776 565.375 83.552C565.615 83.312 565.911 83.192 566.263 83.192C566.615 83.192 566.911 83.304 567.151 83.528C567.391 83.752 567.511 84.032 567.511 84.368C567.511 84.72 567.391 85.016 567.151 85.256C566.927 85.496 566.631 85.616 566.263 85.616ZM578.277 88.28C579.301 88.28 580.197 88.48 580.965 88.88C581.749 89.264 582.357 89.856 582.789 90.656C583.237 91.456 583.461 92.464 583.461 93.68V101H581.757V93.848C581.757 92.52 581.421 91.52 580.749 90.848C580.093 90.16 579.165 89.816 577.965 89.816C577.069 89.816 576.285 90 575.613 90.368C574.957 90.72 574.445 91.24 574.077 91.928C573.725 92.6 573.549 93.416 573.549 94.376V101H571.845V88.4H573.477V91.856L573.213 91.208C573.613 90.296 574.253 89.584 575.133 89.072C576.013 88.544 577.061 88.28 578.277 88.28ZM595.96 101V98.216L595.888 97.76V93.104C595.888 92.032 595.584 91.208 594.976 90.632C594.384 90.056 593.496 89.768 592.312 89.768C591.496 89.768 590.72 89.904 589.984 90.176C589.248 90.448 588.624 90.808 588.112 91.256L587.344 89.984C587.984 89.44 588.752 89.024 589.648 88.736C590.544 88.432 591.488 88.28 592.48 88.28C594.112 88.28 595.368 88.688 596.248 89.504C597.144 90.304 597.592 91.528 597.592 93.176V101H595.96ZM591.616 101.12C590.672 101.12 589.848 100.968 589.144 100.664C588.456 100.344 587.928 99.912 587.56 99.368C587.192 98.808 587.008 98.168 587.008 97.448C587.008 96.792 587.16 96.2 587.464 95.672C587.784 95.128 588.296 94.696 589 94.376C589.72 94.04 590.68 93.872 591.88 93.872H596.224V95.144H591.928C590.712 95.144 589.864 95.36 589.384 95.792C588.92 96.224 588.688 96.76 588.688 97.4C588.688 98.12 588.968 98.696 589.528 99.128C590.088 99.56 590.872 99.776 591.88 99.776C592.84 99.776 593.664 99.56 594.352 99.128C595.056 98.68 595.568 98.04 595.888 97.208L596.272 98.384C595.952 99.216 595.392 99.88 594.592 100.376C593.808 100.872 592.816 101.12 591.616 101.12ZM602.292 95.96L601.956 84.2H603.972L603.612 95.96H602.292ZM602.964 101.12C602.612 101.12 602.308 101 602.052 100.76C601.812 100.504 601.692 100.208 601.692 99.872C601.692 99.52 601.812 99.232 602.052 99.008C602.308 98.768 602.612 98.648 602.964 98.648C603.332 98.648 603.628 98.768 603.852 99.008C604.092 99.232 604.212 99.52 604.212 99.872C604.212 100.208 604.092 100.504 603.852 100.76C603.628 101 603.332 101.12 602.964 101.12Z" fill="white"/>
<g clip-path="url(#clip0_0_1)">
<path fill-rule="evenodd" clip-rule="evenodd" d="M48.58 9.74368V25.3337H60.2391V9.74368H56.3527V21.4362H52.4664V9.74368H48.58Z" fill="url(#paint0_linear_0_1)"/>
<path fill-rule="evenodd" clip-rule="evenodd" d="M0 27.2822V66.2563H3.88639V27.2822H0Z" fill="url(#paint1_linear_0_1)"/>
<path fill-rule="evenodd" clip-rule="evenodd" d="M0.971558 44.8207V48.7182H13.6023V44.8207H0.971558Z" fill="url(#paint2_linear_0_1)"/>
<path fill-rule="evenodd" clip-rule="evenodd" d="M41.9078 15.5899C40.5468 15.5899 39.2767 16.3116 38.5756 17.4852L33.8769 25.3337H15.5456C13.422 25.3337 11.6592 27.1009 11.6592 29.2308V64.3079C11.6592 66.4375 13.422 68.2054 15.5456 68.2054H32.2528C33.5769 68.2054 34.8621 68.6622 35.8963 69.4915L41.354 73.8687C43.076 75.2504 45.2128 75.9999 47.4187 75.9999H85.5007C87.6246 75.9999 89.4096 74.2416 89.3871 72.0876V62.3591H96.1883L101.434 69.3773C101.615 69.6189 101.85 69.8148 102.12 69.9496C102.39 70.0843 102.688 70.1542 102.989 70.1537H108.819C112.016 70.1537 114.649 67.5131 114.649 64.3074V37.0253C114.649 33.8197 112.016 31.1791 108.819 31.1791H102.989C102.687 31.1794 102.389 31.2503 102.119 31.3863C101.849 31.5223 101.614 31.7197 101.434 31.9626L96.1883 38.9736H89.3871V29.2303C89.3871 27.1004 87.6254 25.311 85.4781 25.3328H74.9421L70.2439 17.4848C69.5424 16.3078 68.2742 15.5891 66.9113 15.5891H62.1823V19.4866H66.9113L72.1793 28.2863C72.3518 28.5739 72.5955 28.8118 72.8867 28.9772C73.1779 29.1427 73.5068 29.2298 73.8415 29.2303H85.5007V40.9228C85.5007 41.4396 85.7055 41.9352 86.0699 42.3007C86.4343 42.6661 86.9285 42.8715 87.4439 42.8716H97.1599C97.4615 42.8722 97.7592 42.8022 98.0293 42.6675C98.2994 42.5328 98.5345 42.3369 98.716 42.0952L103.961 35.077H108.819C109.915 35.077 110.762 35.927 110.762 37.0258V64.3079C110.762 65.4068 109.915 66.2566 108.819 66.2566H103.961L98.716 59.2456C98.5352 59.0026 98.3005 58.8053 98.0303 58.6693C97.7602 58.5333 97.4621 58.4623 97.1599 58.4621H87.4439C86.9285 58.4621 86.4343 58.6671 86.0699 59.0325C85.7055 59.398 85.5007 59.8935 85.5007 60.4104V72.1029H47.4187C46.0946 72.1029 44.809 71.6537 43.7752 70.8244L38.3175 66.4468C36.5951 65.0651 34.4587 64.3079 32.2528 64.3079H15.5456V29.2308H34.9775C35.3136 29.2316 35.644 29.1454 35.9367 28.9799C36.2294 28.8144 36.4743 28.5755 36.6475 28.2867L41.9078 19.487H46.6367V15.5895L41.9078 15.5899Z" fill="url(#paint3_linear_0_1)"/>
<path fill-rule="evenodd" clip-rule="evenodd" d="M38.864 0.000183105V11.6922H69.9552V0.000183105H68.012H38.864ZM42.7504 3.89724H66.0688V7.79474H42.7504V3.89724Z" fill="url(#paint4_linear_0_1)"/>
<path fill-rule="evenodd" clip-rule="evenodd" d="M85.5007 40.923V60.4101H89.3871V40.923H85.5007Z" fill="url(#paint5_linear_0_1)"/>
<path fill-rule="evenodd" clip-rule="evenodd" d="M21.3751 27.2822V66.2563H25.2615V27.2822H21.3751Z" fill="url(#paint6_linear_0_1)"/>
<path fill-rule="evenodd" clip-rule="evenodd" d="M95.2167 40.923V60.4101H99.1031V40.923H95.2167Z" fill="url(#paint7_linear_0_1)"/>
<path fill-rule="evenodd" clip-rule="evenodd" d="M75.7847 27.2822V35.0768H79.6711V27.2822H75.7847Z" fill="url(#paint8_linear_0_1)"/>
<path fill-rule="evenodd" clip-rule="evenodd" d="M58.2959 64.3077V68.2052H87.4439V64.3077H58.2959Z" fill="url(#paint9_linear_0_1)"/>
<path fill-rule="evenodd" clip-rule="evenodd" d="M52.4663 64.3077V68.2052H56.3527V64.3077H52.4663Z" fill="url(#paint10_linear_0_1)"/>
<path fill-rule="evenodd" clip-rule="evenodd" d="M75.7847 37.0257V40.9232H79.6711V37.0257H75.7847Z" fill="url(#paint11_linear_0_1)"/>
<path d="M210.777 66.739H199.735L196.226 26.4071L182.71 66.739H175.546L162.03 26.4071L158.484 66.739H147.405L151.874 13.2249H167.68L179.054 46.8154L190.576 13.2249H206.382L210.777 66.739ZM256.679 47.1476L256.568 49.703H228.428C228.871 56.0359 233.081 59.0728 238.14 59.0728C241.944 59.0728 244.898 57.2951 246.339 53.925L256.088 55.3694C253.577 63.0728 246.745 67.4799 238.214 67.4799C225.953 67.4799 217.94 60.221 217.94 47.7035C217.94 35.1861 226.175 27.8528 237.882 27.8528C248.628 27.8528 256.642 33.8151 256.679 47.1476ZM237.957 35.4076C233.119 35.4076 229.759 37.6667 228.725 42.7405H246.156C245.602 37.8889 242.315 35.4076 237.957 35.4076ZM281.941 67.4426C270.012 67.4426 261.592 59.4802 261.592 47.6662C261.592 35.8151 270.012 27.9266 281.941 27.9266C291.543 27.9266 298.744 32.9264 300.59 41.9257L290.767 42.9997C289.585 38.4443 286.298 36.3335 281.829 36.3335C276.105 36.3335 272.228 40.8517 272.228 47.6662C272.228 54.4435 276.105 58.9989 281.829 58.9989C286.298 58.9989 289.585 56.8509 290.767 52.3327L300.59 53.4067C298.744 62.406 291.358 67.4426 281.941 67.4426ZM339.293 56.4063C339.293 61.0728 339.736 64.0354 340.216 65.7021V66.7391H330.282L329.432 62.591C326.589 66.0352 321.677 67.4797 317.245 67.4797C311.263 67.4797 305.428 64.8132 305.428 56.8877C305.428 48.9992 311.299 46.3328 319.239 44.5921L325.48 43.1848C328.176 42.5552 329.136 41.6293 329.136 40.0738C329.136 36.3333 325.739 35.2962 322.747 35.2962C318.907 35.2962 315.989 36.8146 315.324 41.1107L305.908 39.4071C307.495 31.5186 313.257 27.9264 323.338 27.9264C330.946 27.9264 339.292 30.1856 339.292 41.6662L339.293 56.4063ZM320.569 60.2578C325.629 60.2578 329.691 56.8876 329.691 49.3324L320.68 51.8878C317.726 52.5914 315.583 53.6284 315.583 56.1838C315.583 58.9244 317.836 60.2578 320.569 60.2578ZM372.049 27.9279C381.171 27.9279 386.193 32.6683 386.193 41.1124V66.7405H375.52V43.4087C375.52 38.3349 372.381 36.4831 368.725 36.4831C364.331 36.4831 360.342 38.7052 360.268 45.7418V66.7405H349.633V28.6689H360.268V32.891C362.927 29.743 367.027 27.9279 372.049 27.9279ZM414.186 67.4796C402.11 67.4796 393.395 60.1096 393.395 47.666C393.395 35.2965 402.037 27.9264 414.186 27.9264C426.41 27.9264 435.015 35.2965 435.015 47.666C435.015 60.1099 426.373 67.4796 414.186 67.4796ZM414.075 58.9987C420.243 58.9987 424.453 54.4805 424.453 47.666C424.453 40.8515 420.242 36.3333 414.075 36.3333C408.13 36.3333 403.957 40.8515 403.957 47.666C403.957 54.4805 408.13 58.9987 414.075 58.9987ZM475.269 13.2249V23.002H462.602V66.7393H451.634V23.002H438.893V13.2249H475.269ZM517.957 47.1476L517.847 49.703H489.706C490.149 56.0359 494.359 59.0728 499.419 59.0728C503.223 59.0728 506.177 57.2951 507.617 53.925L517.367 55.3694C514.856 63.0728 508.024 67.4799 499.493 67.4799C487.232 67.4799 479.218 60.221 479.218 47.7035C479.218 35.1861 487.453 27.8528 499.16 27.8528C509.907 27.8528 517.92 33.8151 517.957 47.1476ZM499.236 35.4076C494.398 35.4076 491.037 37.6667 490.003 42.7405H507.434C506.88 37.8889 503.594 35.4076 499.236 35.4076ZM543.219 67.4426C531.291 67.4426 522.871 59.4802 522.871 47.6662C522.871 35.8151 531.291 27.9266 543.219 27.9266C552.821 27.9266 560.022 32.9264 561.868 41.9257L552.045 42.9997C550.863 38.4443 547.577 36.3335 543.108 36.3335C537.384 36.3335 533.506 40.8517 533.506 47.6662C533.506 54.4435 537.384 58.9989 543.108 58.9989C547.576 58.9989 550.863 56.8509 552.045 52.3327L561.868 53.4067C560.022 62.406 552.636 67.4426 543.219 67.4426ZM592.41 27.9279C600.904 27.9279 606 32.6683 606 42.1864V66.7405H595.327V43.9271C595.327 38.3349 592.225 36.4831 588.421 36.4831C584.47 36.4831 580.149 38.4459 580.075 45.7418V66.7405H569.439V9.85498H580.075V33.2239C582.771 29.9278 587.018 27.9279 592.41 27.9279Z" fill="white"/>
</g>
<defs>
<linearGradient id="paint0_linear_0_1" x1="48.58" y1="9.74368" x2="60.2391" y2="9.74368" gradientUnits="userSpaceOnUse">
<stop stop-color="#7D141D"/>
<stop offset="1" stop-color="#FF1E27"/>
</linearGradient>
<linearGradient id="paint1_linear_0_1" x1="0" y1="27.2822" x2="3.88639" y2="27.2822" gradientUnits="userSpaceOnUse">
<stop stop-color="#7D141D"/>
<stop offset="1" stop-color="#FF1E27"/>
</linearGradient>
<linearGradient id="paint2_linear_0_1" x1="0.971558" y1="44.8207" x2="13.6023" y2="44.8207" gradientUnits="userSpaceOnUse">
<stop stop-color="#7D141D"/>
<stop offset="1" stop-color="#FF1E27"/>
</linearGradient>
<linearGradient id="paint3_linear_0_1" x1="11.6592" y1="15.5891" x2="114.649" y2="15.5891" gradientUnits="userSpaceOnUse">
<stop stop-color="#7D141D"/>
<stop offset="1" stop-color="#FF1E27"/>
</linearGradient>
<linearGradient id="paint4_linear_0_1" x1="38.864" y1="0.000183105" x2="69.9552" y2="0.000183105" gradientUnits="userSpaceOnUse">
<stop stop-color="#7D141D"/>
<stop offset="1" stop-color="#FF1E27"/>
</linearGradient>
<linearGradient id="paint5_linear_0_1" x1="85.5007" y1="40.923" x2="89.3871" y2="40.923" gradientUnits="userSpaceOnUse">
<stop stop-color="#7D141D"/>
<stop offset="1" stop-color="#FF1E27"/>
</linearGradient>
<linearGradient id="paint6_linear_0_1" x1="21.3751" y1="27.2822" x2="25.2615" y2="27.2822" gradientUnits="userSpaceOnUse">
<stop stop-color="#7D141D"/>
<stop offset="1" stop-color="#FF1E27"/>
</linearGradient>
<linearGradient id="paint7_linear_0_1" x1="95.2167" y1="40.923" x2="99.1031" y2="40.923" gradientUnits="userSpaceOnUse">
<stop stop-color="#7D141D"/>
<stop offset="1" stop-color="#FF1E27"/>
</linearGradient>
<linearGradient id="paint8_linear_0_1" x1="75.7847" y1="27.2822" x2="79.6711" y2="27.2822" gradientUnits="userSpaceOnUse">
<stop stop-color="#7D141D"/>
<stop offset="1" stop-color="#FF1E27"/>
</linearGradient>
<linearGradient id="paint9_linear_0_1" x1="58.2959" y1="64.3077" x2="87.4439" y2="64.3077" gradientUnits="userSpaceOnUse">
<stop stop-color="#7D141D"/>
<stop offset="1" stop-color="#FF1E27"/>
</linearGradient>
<linearGradient id="paint10_linear_0_1" x1="52.4663" y1="64.3077" x2="56.3527" y2="64.3077" gradientUnits="userSpaceOnUse">
<stop stop-color="#7D141D"/>
<stop offset="1" stop-color="#FF1E27"/>
</linearGradient>
<linearGradient id="paint11_linear_0_1" x1="75.7847" y1="37.0257" x2="79.6711" y2="37.0257" gradientUnits="userSpaceOnUse">
<stop stop-color="#7D141D"/>
<stop offset="1" stop-color="#FF1E27"/>
</linearGradient>
<clipPath id="clip0_0_1">
<rect width="606" height="76" fill="white"/>
</clipPath>
</defs>
</svg>
